<svg xmlns="http://www.w3.org/2000/svg" viewBox="0 0 1212 766" width="230" height="145">
	<style>
		tspan { white-space:pre }
		.shp0 { fill: #ff2e17 } 
		.shp1 { fill: #2c2e35 } 
		.shp2 { fill: #0155ae } 
	</style>
	<g id="Ebene 1">
		<g id="&lt;Group&gt;">
			<g id="&lt;Group&gt;">
				<g id="&lt;Group&gt;">
					<path id="&lt;Path&gt;" class="shp0" d="M9.75 483.45L1200.99 483.45L1200.99 465.31L9.75 465.3L9.75 483.45Z" />
				</g>
				<g id="&lt;Group&gt;">
					<path id="&lt;Compound Path&gt;" class="shp1" d="M39.7 591.23L31.87 591.23L9.97 527.45L20.43 527.45L35.79 573.86L51.12 527.45L61.77 527.45L39.7 591.23Z" />
					<path id="&lt;Compound Path&gt;" class="shp1" d="M71.23 591.23L71.23 527.45L81.3 527.45L81.3 591.23L71.23 591.23Z" />
					<path id="&lt;Compound Path&gt;" class="shp1" d="M98.98 591.23L98.98 527.45L141.53 527.45L141.53 536.13L109.09 536.13L109.09 554.76L136.74 554.76L136.74 563.37L109.09 563.37L109.09 582.55L141.53 582.55L141.53 591.23L98.98 591.23Z" />
					<path id="&lt;Compound Path&gt;" class="shp1" d="M196.52 591.23L165.76 546.35L165.76 591.23L155.64 591.23L155.64 527.45L164.92 527.45L195.67 572.24L195.67 527.45L205.79 527.45L205.79 591.23L196.52 591.23Z" />
					<path id="&lt;Compound Path&gt;" class="shp1" d="M264.32 591.23L233.54 546.35L233.54 591.23L223.43 591.23L223.43 527.45L232.7 527.45L263.46 572.24L263.46 527.45L273.58 527.45L273.58 591.23L264.32 591.23Z" />
					<path id="&lt;Compound Path&gt;" fill-rule="evenodd" class="shp1" d="M329.48 591.23L324.88 578.42L298.63 578.42L294.05 591.23L283.29 591.23L307.71 527.45L315.84 527.45L340.24 591.23L329.48 591.23ZM312 541.86L301.63 570.16L322.1 570.16L312 541.86Z" />
					<path id="&lt;Compound Path&gt;" class="shp1" d="M372.69 591.23L372.69 527.45L382.78 527.45L382.78 591.23L372.69 591.23Z" />
					<path id="&lt;Compound Path&gt;" class="shp1" d="M441.3 591.23L410.56 546.35L410.56 591.23L400.47 591.23L400.47 527.45L409.72 527.45L440.47 572.24L440.47 527.45L450.57 527.45L450.57 591.23L441.3 591.23Z" />
					<path id="&lt;Compound Path&gt;" class="shp1" d="M485.9 591.8C475.9 591.8 468.71 589.54 462.37 583.34L469.09 576.99C473.95 581.67 479.26 583.09 486.09 583.09C494.81 583.09 499.84 579.49 499.84 573.32C499.84 570.54 499.02 568.2 497.24 566.69C495.55 565.14 493.87 564.53 489.94 564L482.1 562.93C476.65 562.21 472.36 560.42 469.46 557.8C466.19 554.86 464.58 550.83 464.58 545.63C464.58 534.53 473.01 526.9 486.85 526.9C495.64 526.9 501.82 529.04 507.52 534.17L501.09 540.25C496.95 536.48 492.2 535.31 486.6 535.31C478.71 535.31 474.43 539.61 474.43 545.28C474.43 547.6 475.17 549.66 476.94 551.2C478.61 552.62 481.33 553.7 484.42 554.14L492.01 555.2C498.19 556.1 501.64 557.55 504.43 559.95C508.09 563 509.86 567.58 509.86 573.06C509.86 584.8 499.84 591.8 485.9 591.8Z" />
					<path id="&lt;Compound Path&gt;" class="shp1" d="M546.53 591.8C532.96 591.8 522.67 582.89 522.67 569.74L522.67 527.45L532.8 527.45L532.8 569.28C532.8 577.8 538.19 583.09 546.53 583.09C554.85 583.09 560.33 577.8 560.33 569.28L560.33 527.45L570.47 527.45L570.47 569.74C570.47 582.89 560.08 591.8 546.53 591.8Z" />
					<path id="&lt;Compound Path&gt;" fill-rule="evenodd" class="shp1" d="M623.83 591.23L609.84 564.37L597.18 564.37L597.18 591.23L587.1 591.23L587.1 527.45L612.93 527.45C625.53 527.45 633.57 535.22 633.57 546.08C633.57 555.2 627.78 561.04 620.3 563L635.63 591.23L623.83 591.23ZM612.16 536.13L597.18 536.13L597.18 556.1L612.16 556.1C618.87 556.1 623.46 552.43 623.46 546.16C623.46 539.88 618.87 536.13 612.16 536.13Z" />
					<path id="&lt;Compound Path&gt;" fill-rule="evenodd" class="shp1" d="M686.88 591.23L682.27 578.42L656 578.42L651.43 591.23L640.68 591.23L665.08 527.45L673.19 527.45L697.63 591.23L686.88 591.23ZM669.37 541.86L658.99 570.16L679.47 570.16L669.37 541.86Z" />
					<path id="&lt;Compound Path&gt;" class="shp1" d="M748.2 591.23L717.43 546.35L717.43 591.23L707.33 591.23L707.33 527.45L716.6 527.45L747.36 572.24L747.36 527.45L757.45 527.45L757.45 591.23L748.2 591.23Z" />
					<path id="&lt;Compound Path&gt;" class="shp1" d="M796.65 591.8C789.71 591.8 783.75 589.33 779.14 584.96C772.61 578.7 772.71 571.61 772.71 559.34C772.71 547.05 772.61 539.98 779.14 533.68C783.75 529.33 789.71 526.9 796.65 526.9C804.97 526.9 810.27 529.76 815.25 534.41L808.53 540.95C805.07 537.65 802.17 535.6 796.65 535.6C792.73 535.6 789.17 537.04 786.81 539.43C783.58 542.86 782.92 546.51 782.92 559.34C782.92 572.15 783.58 575.83 786.81 579.24C789.17 581.67 792.73 583.09 796.65 583.09C802.17 583.09 805.07 581.02 808.53 577.72L815.25 584.25C810.27 588.91 804.97 591.8 796.65 591.8Z" />
					<path id="&lt;Compound Path&gt;" class="shp1" d="M829.09 591.23L829.09 527.45L871.61 527.45L871.61 536.13L839.18 536.13L839.18 554.76L866.86 554.76L866.86 563.37L839.18 563.37L839.18 582.55L871.61 582.55L871.61 591.23L829.09 591.23Z" />
					<path id="&lt;Compound Path&gt;" class="shp1" d="M948.11 584.44C943.42 589.17 937.29 591.8 930 591.8C923.05 591.8 917.09 589.33 912.48 584.96C905.94 578.7 906.06 571.61 906.06 559.34C906.06 547.05 905.94 539.98 912.48 533.68C917.09 529.33 922.86 526.9 930 526.9C939.03 526.9 944.12 529.59 950.07 535.31L943.25 541.86C939.03 537.83 935.98 535.6 930 535.6C926.07 535.6 922.39 537.12 920.07 539.53C916.81 542.94 916.16 546.51 916.16 559.34C916.16 572.15 916.81 575.83 920.07 579.24C922.39 581.67 926.07 583.09 930 583.09C934.39 583.09 938.02 581.49 940.63 578.6C943.07 576 943.9 572.45 943.9 568.45L943.9 564.98L930 564.98L930 556.76L954 556.76L954 566.33C954 574.58 952.51 579.93 948.11 584.44Z" />
					<path id="&lt;Compound Path&gt;" fill-rule="evenodd" class="shp1" d="M1005.47 591.23L991.41 564.37L978.81 564.37L978.81 591.23L968.71 591.23L968.71 527.45L994.5 527.45C1007.13 527.45 1015.16 535.22 1015.16 546.08C1015.16 555.2 1009.39 561.04 1001.91 563L1017.24 591.23L1005.47 591.23ZM993.77 536.13L978.81 536.13L978.81 556.1L993.77 556.1C1000.49 556.1 1005.07 552.43 1005.07 546.16C1005.07 539.88 1000.49 536.13 993.77 536.13Z" />
					<path id="&lt;Compound Path&gt;" fill-rule="evenodd" class="shp1" d="M1069.29 584.96C1064.71 589.33 1058.83 591.8 1051.75 591.8C1044.63 591.8 1038.85 589.33 1034.23 584.96C1027.7 578.7 1027.8 571.61 1027.8 559.34C1027.8 547.05 1027.7 539.98 1034.23 533.68C1038.85 529.33 1044.63 526.9 1051.75 526.9C1058.83 526.9 1064.71 529.33 1069.29 533.68C1075.86 539.98 1075.69 547.05 1075.69 559.34C1075.69 571.61 1075.86 578.7 1069.29 584.96ZM1061.66 539.53C1059.3 537.12 1055.67 535.6 1051.75 535.6C1047.79 535.6 1044.15 537.12 1041.83 539.53C1038.56 542.94 1037.91 546.51 1037.91 559.34C1037.91 572.15 1038.56 575.71 1041.83 579.15C1044.15 581.57 1047.79 583.09 1051.75 583.09C1055.67 583.09 1059.3 581.57 1061.66 579.15C1064.93 575.71 1065.58 572.15 1065.58 559.34C1065.58 546.51 1064.93 542.94 1061.66 539.53Z" />
					<path id="&lt;Compound Path&gt;" class="shp1" d="M1113.71 591.8C1100.16 591.8 1089.88 582.89 1089.88 569.74L1089.88 527.45L1099.98 527.45L1099.98 569.28C1099.98 577.8 1105.4 583.09 1113.71 583.09C1122.03 583.09 1127.59 577.8 1127.59 569.28L1127.59 527.45L1137.66 527.45L1137.66 569.74C1137.66 582.89 1127.29 591.8 1113.71 591.8Z" />
					<path id="&lt;Compound Path&gt;" fill-rule="evenodd" class="shp1" d="M1179.57 566.16L1164.42 566.16L1164.42 591.23L1154.32 591.23L1154.32 527.45L1179.57 527.45C1192.57 527.45 1200.89 535.69 1200.89 546.77C1200.89 557.92 1192.57 566.16 1179.57 566.16ZM1178.98 536.13L1164.42 536.13L1164.42 557.39L1178.98 557.39C1186.03 557.39 1190.79 553.52 1190.79 546.77C1190.79 540.07 1186.03 536.13 1178.98 536.13Z" />
				</g>
			</g>
		</g>
		<g id="InterRisk 3 ">
			<g id="&lt;Group&gt;">
				<path id="&lt;Path&gt;" class="shp2" d="M801.75 420.09L834.36 420.09L834.36 266.44L801.75 266.44L801.75 420.09Z" />
				<path id="&lt;Path&gt;" class="shp2" d="M875.47 420.09L834.83 366.1L874.8 316L914.22 316L873.92 366.1L914.67 420.09L875.47 420.09Z" />
				<path id="&lt;Path&gt;" class="shp2" d="M708.84 414.51L708.84 391.33C715.45 394.33 721.51 396.62 727.14 398.31C732.72 399.96 737.46 400.75 741.23 400.75C746.45 400.75 750.33 400.06 753.01 398.76C755.62 397.46 756.92 395.49 756.92 392.85C756.92 390.64 755.96 388.72 753.95 386.98C751.99 385.28 747.5 382.96 740.48 380.04C739.74 379.73 738.58 379.27 736.95 378.62C716.97 370.32 706.97 359.68 706.97 346.74C706.97 336.82 710.67 328.88 718.03 322.88C725.38 316.9 735.13 313.89 747.28 313.89C753.79 313.89 759.95 314.62 765.79 316C771.64 317.37 777.24 319.48 782.77 322.27L782.77 345.18C775.87 341.55 769.76 338.89 764.36 337.15C758.99 335.48 754.02 334.66 749.46 334.66C745.5 334.66 742.5 335.39 740.36 336.77C738.23 338.15 737.18 340.07 737.18 342.66C737.18 346.05 743.11 350.18 754.98 355.08C759.79 357 763.59 358.57 766.38 359.79C774 363.11 779.55 367.04 783.03 371.68C786.51 376.25 788.24 382.01 788.24 388.79C788.24 399.52 784.51 407.82 777.08 413.62C769.63 419.4 759.12 422.29 745.41 422.29C738.62 422.29 732.16 421.67 726 420.38C719.89 419.1 714.22 417.1 708.84 414.51Z" />
				<path id="&lt;Compound Path&gt;" fill-rule="evenodd" class="shp2" d="M655.2 282.26C655.2 277.35 656.87 273.18 660.28 269.77C663.68 266.35 667.89 264.68 672.78 264.68C677.77 264.68 681.9 266.35 685.29 269.74C688.68 273.11 690.33 277.24 690.33 282.26C690.33 287.18 688.68 291.31 685.29 294.66C681.9 298.05 677.77 299.72 672.78 299.72C667.89 299.72 663.68 298.05 660.28 294.64C656.87 291.22 655.2 287.09 655.2 282.26ZM689.28 420.09L656.43 420.09L656.43 316L689.28 316L689.28 420.09ZM513.56 420.09L513.56 266.42L570.34 266.42C591.18 266.42 606.59 270.07 616.55 277.31C626.53 284.57 631.51 295.77 631.51 311.03C631.51 319.53 629.28 326.78 624.89 332.82C620.47 338.89 613.8 343.98 604.67 348.15C608.51 349.57 611.88 351.85 614.94 355.09C617.99 358.38 620.65 362.51 622.94 367.51L647.43 420.09L604.05 420.09L584.53 375.83C581.37 368.81 577.77 363.99 573.74 361.33C569.72 358.66 563.99 357.36 556.6 357.36C556.03 357.36 555.22 357.4 554.31 357.5C553.33 357.56 552.61 357.61 552.08 357.61L552.08 420.09L513.56 420.09ZM570.55 329.48C577.66 329.48 582.93 328 586.43 325.02C589.91 322.05 591.62 317.59 591.62 311.5C591.62 305.7 589.84 301.29 586.21 298.27C582.59 295.26 577.37 293.68 570.55 293.68L552.08 293.68L552.08 329.48L570.55 329.48Z" />
				<path id="&lt;Path&gt;" class="shp2" d="M413.27 420.09L413.27 316L446.08 316L446.08 343.87C451.65 333.34 457.01 325.8 462.16 321.22C467.27 316.61 472.89 314.35 478.94 314.35C481.93 314.35 485.11 314.98 488.48 316.21C491.74 317.45 495.51 319.4 499.59 322.01L490.84 351.88C487.52 349.35 484.49 347.46 481.66 346.3C478.89 345.16 476.19 344.56 473.47 344.56C467.23 344.56 461.62 347.28 456.7 352.79C451.76 358.28 448.24 365.81 446.08 375.3L446.08 420.09L413.27 420.09Z" />
				<path id="&lt;Compound Path&gt;" fill-rule="evenodd" class="shp2" d="M392.99 408.71C385.9 413.29 378.4 416.7 370.52 418.99C362.65 421.16 354.24 422.29 345.28 422.29C327.34 422.29 313.31 417.39 303.1 407.57C292.94 397.78 287.84 384.19 287.84 366.84C287.84 350.8 292.83 337.93 302.76 328.32C312.75 318.68 326 313.89 342.56 313.89C358.88 313.89 371.76 319.11 381.21 329.54C390.67 339.98 395.38 354.35 395.38 372.69L395.38 373.76L321.68 373.76L321.68 374.22C321.68 382.48 324.49 389.03 330.13 393.81C335.75 398.62 343.49 401.01 353.33 401.01C359.93 401.01 366.53 399.81 373.13 397.46C379.69 395.1 386.3 391.62 392.99 387.01L392.99 408.71ZM321.9 357.83L362.32 357.68C361.74 350.96 359.69 345.72 356.2 341.88C352.75 338.11 348.26 336.19 342.8 336.19C337.13 336.19 332.47 338.11 328.75 341.88C325.06 345.72 322.75 351 321.9 357.83Z" />
				<path id="&lt;Path&gt;" class="shp2" d="M208.74 338.69L193.82 338.69L193.82 331.67L236.31 285.58L241.26 285.58L241.26 316L276.82 316L276.82 338.69L241.26 338.69L241.26 377.15C241.26 385.13 242.36 390.49 244.67 393.12C246.93 395.79 251.06 397.13 257.08 397.13C259.98 397.13 263.06 396.73 266.33 395.84C269.61 395.03 273.07 393.72 276.82 391.98L277.06 416.49C271.76 418.44 266.51 419.93 261.23 420.87C255.96 421.83 250.74 422.29 245.52 422.29C232.29 422.29 222.86 418.88 217.24 412.06C211.57 405.28 208.74 393.5 208.74 376.94L208.74 338.69Z" />
				<path id="&lt;Path&gt;" class="shp2" d="M77.38 420.09L77.38 316L109.99 316L109.99 329.05C115.12 323.79 120.49 319.93 126.18 317.54C131.76 315.11 138.25 313.89 145.46 313.89C156.92 313.89 165.66 317.34 171.75 324.3C177.84 331.18 180.85 341.19 180.85 354.17L180.85 420.09L148.02 420.09L148.02 358.66C148.02 351.31 146.8 345.85 144.49 342.46C142.06 339.02 138.34 337.28 133.25 337.28C128.71 337.28 124.49 338.65 120.59 341.41C116.68 344.27 113.15 348.33 109.99 353.71L109.99 420.09L77.38 420.09Z" />
				<path id="&lt;Path&gt;" class="shp2" d="M9.86 420.09L49.54 420.09L49.54 266.44L9.86 266.44L9.86 420.09Z" />
			</g>
			<g id="&lt;Group&gt;">
				<path id="&lt;Path&gt;" class="shp0" d="M1052.16 268.14C1106.87 255.9 1147.48 275.55 1173.98 327.09C1180.4 337.96 1195.82 402.64 1156.71 419.78C1126.88 430.13 1098.92 419.11 1072.8 386.72C1046.62 352.1 1039.74 312.58 1052.16 268.14Z" />
				<path id="&lt;Path&gt;" class="shp0" d="M1067.6 212.39C1041.59 178.56 1001.88 162.69 956.09 162.69C954.59 162.69 953.05 162.74 951.56 162.81C948.73 170.88 946.74 179.31 945.56 188.03C944.85 193.56 944.42 199.19 944.42 204.94C944.42 238.45 957.4 268.98 978.57 291.74C996.31 272.62 1019.82 258.93 1046.36 253.57C1052.78 235.91 1058.65 225 1067.6 212.39Z" />
				<path id="&lt;Path&gt;" class="shp2" d="M1198.47 188.03C1197.93 183.79 1197.13 179.58 1196.17 175.45C1195.12 170.99 1193.83 166.62 1192.32 162.4C1190.89 162.32 1189.44 162.25 1187.96 162.25C1161.89 162.25 1137.46 169.54 1116.69 182.19C1098.49 193.25 1083.12 208.47 1071.77 226.49C1071.12 227.5 1070.46 228.59 1069.81 229.64C1065.71 236.57 1062.18 243.91 1059.34 251.58C1059.95 251.52 1060.61 251.49 1061.24 251.43C1064.81 251.14 1068.38 250.96 1072.03 250.96C1075.65 250.96 1079.26 251.14 1082.83 251.43C1083.3 251.47 1083.77 251.49 1084.26 251.56C1116.25 254.6 1144.82 269.47 1165.48 291.74C1186.65 268.98 1199.63 238.45 1199.63 204.94C1199.63 199.19 1199.21 193.56 1198.47 188.03Z" />
				<path id="&lt;Path&gt;" class="shp0" d="M1064.34 391.11C1035.47 350.22 1027.62 309.57 1040.78 269.18C1016.25 274.53 997.33 285.21 984.04 301.22C968.05 319.33 960.33 336.66 957.69 352.5C956.92 356.63 956.49 360.95 956.49 365.37C956.49 365.73 956.53 367.04 956.67 369C956.81 372.12 957.22 375.12 957.81 377.9C960.8 394.5 970.32 421.63 1000.7 421.63C1001.8 421.63 1002.93 421.53 1004.05 421.43C1004.27 421.4 1004.42 421.43 1004.65 421.43C1020.71 420.37 1042.15 413.33 1064.34 391.11Z" />
			</g>
		</g>
	</g>
</svg>